<?xml version="1.0" standalone="no"?>
<!DOCTYPE svg PUBLIC "-//W3C//DTD SVG 20010904//EN"
 "http://www.w3.org/TR/2001/REC-SVG-20010904/DTD/svg10.dtd">
<svg version="1.0" xmlns="http://www.w3.org/2000/svg"
 width="1081.000000pt" height="1081.000000pt" viewBox="0 0 1081.000000 1081.000000"
 preserveAspectRatio="xMidYMid meet">
<metadata>
Created by potrace 1.11, written by Peter Selinger 2001-2013
</metadata>
<g transform="translate(0.000000,1081.000000) scale(0.100000,-0.100000)"
fill="#000000" stroke="none">
<path d="M5448 9975 c-4 -4 -24 -8 -45 -10 -21 -2 -39 -4 -40 -6 -3 -2 -1 -1
-75 -19 -32 -7 -58 -17 -58 -22 0 -5 -5 -6 -10 -3 -6 4 -18 1 -27 -7 -9 -7
-18 -12 -20 -10 -1 1 -4 2 -5 1 -2 0 -16 -3 -33 -5 -16 -3 -42 -11 -57 -18
-19 -10 -29 -11 -37 -3 -8 8 -11 5 -11 -9 0 -14 -13 -27 -37 -40 -21 -10 -51
-31 -67 -46 -17 -16 -34 -28 -39 -28 -14 0 -39 -29 -41 -48 -1 -9 -12 -21 -24
-27 -11 -5 -23 -19 -26 -31 -4 -13 -15 -26 -26 -29 -11 -3 -20 -10 -20 -14 0
-13 -41 -56 -51 -53 -5 1 -9 -2 -9 -8 0 -5 -18 -29 -40 -52 -22 -24 -43 -51
-46 -61 -3 -10 -17 -22 -30 -28 -14 -5 -22 -13 -19 -19 3 -5 -1 -10 -9 -10
-19 0 -21 -17 -4 -22 17 -6 -9 -66 -37 -84 -13 -8 -28 -34 -35 -60 -7 -24 -20
-49 -29 -54 -9 -5 -12 -10 -7 -10 5 0 3 -7 -4 -15 -7 -8 -16 -12 -21 -9 -5 3
-6 -1 -3 -9 3 -8 -11 -46 -31 -84 -20 -38 -37 -76 -38 -84 -2 -8 -6 -20 -10
-26 -5 -7 -6 -13 -3 -13 3 0 -2 -16 -10 -35 -8 -19 -11 -35 -8 -35 4 0 1 -6
-5 -14 -13 -15 -18 -64 -27 -282 -6 -114 -4 -155 10 -210 9 -38 19 -79 21 -91
3 -13 7 -33 11 -45 3 -13 7 -34 10 -48 3 -14 18 -54 34 -89 17 -35 30 -67 30
-73 0 -5 9 -18 20 -30 10 -12 17 -25 14 -29 -2 -4 0 -10 5 -13 13 -9 4 -196
-16 -316 -2 -14 -5 -38 -6 -55 -3 -51 -41 -71 -131 -69 -42 0 -79 3 -83 7 -3
4 -15 7 -25 7 -10 0 -26 4 -36 9 -70 37 -244 75 -274 60 -10 -6 -19 -5 -23 1
-3 6 -15 6 -30 0 -13 -5 -27 -5 -30 -1 -3 5 -20 6 -37 2 -18 -4 -44 -6 -57 -5
-21 1 -56 -10 -136 -46 -11 -5 -49 -22 -85 -38 -54 -24 -86 -50 -190 -154
-205 -207 -237 -250 -239 -320 -1 -16 -5 -28 -9 -28 -5 0 -9 -16 -10 -35 -1
-20 -5 -41 -9 -48 -4 -7 -9 -19 -11 -27 -1 -8 -5 -26 -8 -40 -7 -38 -10 -210
-3 -210 11 0 2 -61 -10 -73 -6 -6 -11 -7 -11 -2 0 6 -5 3 -10 -5 -6 -10 -4
-20 6 -31 13 -14 13 -19 1 -31 -8 -7 -19 -23 -26 -36 -6 -12 -18 -22 -26 -22
-15 0 -16 -3 -19 -41 0 -11 -9 -25 -18 -30 -10 -6 -18 -17 -18 -26 0 -28 -202
-249 -218 -239 -6 3 -14 -4 -18 -16 -7 -23 -52 -68 -67 -68 -5 0 -6 -4 -3 -9
4 -5 2 -11 -4 -13 -6 -2 -19 -39 -30 -83 -26 -101 -28 -109 -30 -112 -2 -2 -4
-7 -5 -13 -1 -5 -3 -11 -5 -12 -1 -2 -3 -12 -5 -23 -2 -10 -8 -28 -14 -40 -33
-68 -73 -176 -76 -205 -1 -14 -8 -44 -15 -67 -12 -38 -11 -48 9 -94 11 -28 21
-58 21 -65 0 -8 5 -14 12 -14 6 0 8 -3 5 -7 -4 -3 -2 -12 4 -20 6 -7 8 -13 5
-13 -4 0 1 -15 10 -32 32 -63 34 -67 23 -74 -6 -3 -8 -12 -5 -19 2 -7 -2 -25
-10 -40 -8 -15 -14 -35 -14 -45 0 -10 -4 -20 -10 -22 -5 -1 -12 -18 -14 -36
-3 -29 -28 -61 -48 -62 -8 0 -1 -66 8 -81 3 -5 0 -9 -5 -9 -6 0 -10 -3 -9 -7
0 -5 -2 -15 -5 -23 -12 -31 -58 -176 -63 -200 -3 -13 -8 -27 -12 -30 -4 -3 -9
-21 -10 -40 -2 -19 -8 -43 -14 -53 -5 -10 -6 -28 -2 -40 9 -27 12 -87 4 -87
-8 0 -10 -232 -2 -244 3 -6 7 -24 8 -41 2 -29 7 -60 18 -120 21 -116 28 -227
13 -218 -6 4 -7 1 -1 -8 11 -18 12 -109 2 -115 -5 -3 -5 -11 -1 -17 12 -20 14
-47 2 -47 -5 0 -8 -4 -4 -9 5 -9 -10 -68 -44 -179 -5 -18 -10 -35 -10 -37 -1
-3 -1 -6 -2 -7 -3 -11 -9 -51 -14 -93 -3 -27 -11 -55 -16 -62 -6 -6 -12 -37
-13 -68 -2 -33 -9 -62 -18 -71 -13 -13 -149 -15 -1081 -15 l-1067 1 0 -775 0
-774 91 2 c49 2 93 -1 95 -5 3 -5 10 -5 16 -2 18 11 58 13 58 3 0 -6 6 -7 12
-3 17 10 2148 11 2155 1 2 -4 10 -4 16 0 32 20 74 3 50 -21 -4 -3 -8 -16 -10
-28 -2 -12 -8 -27 -14 -35 -6 -7 -8 -13 -3 -13 5 0 4 -4 -2 -8 -6 -4 -28 -47
-49 -97 -20 -49 -46 -109 -56 -132 -11 -24 -19 -45 -19 -48 0 -3 -11 -28 -25
-56 -19 -36 -25 -63 -23 -92 l3 -42 2336 -3 2336 -2 2 42 c1 24 4 59 6 78 5
35 13 124 20 215 11 139 18 213 24 235 0 3 852 5 1891 5 l1890 0 0 781 0 780
-232 -3 c-128 -2 -233 -5 -235 -6 -1 -2 -27 0 -58 3 -31 3 -57 4 -60 2 -9 -9
-587 2 -603 11 -6 4 -13 3 -16 -2 -3 -5 -118 -9 -258 -9 -139 0 -257 -1 -263
-3 -5 -1 -14 -1 -20 1 -5 1 -77 3 -161 4 -83 2 -157 7 -163 10 -6 4 -11 4 -11
-1 0 -10 -183 -9 -199 1 -6 4 -26 4 -44 0 -55 -12 -1077 -11 -1087 1 -14 17
-7 70 10 70 8 0 15 7 15 15 0 24 18 47 39 51 13 3 20 13 20 31 1 15 10 36 20
47 10 11 15 25 11 30 -3 7 2 11 14 11 12 0 21 7 21 15 0 8 8 22 18 32 24 24
74 93 68 93 -3 0 3 20 14 45 11 25 19 46 19 48 -1 3 21 56 43 104 11 24 23 43
28 43 4 0 7 14 6 31 -1 16 1 32 6 35 4 3 4 13 -2 23 -5 10 -6 21 -3 25 3 3 1
6 -6 6 -7 0 -9 5 -4 12 8 14 11 268 3 268 -3 0 -5 16 -6 35 0 19 4 35 9 35 5
0 4 6 -2 13 -6 8 -8 17 -4 20 3 4 2 7 -3 7 -5 0 -10 21 -11 48 -1 26 -3 63 -6
82 -2 19 0 41 6 48 5 6 5 12 0 12 -13 0 -15 51 -2 66 8 10 7 18 -5 29 -9 9
-17 24 -17 33 -3 34 -7 78 -13 132 -4 35 -2 56 6 61 7 4 4 11 -9 17 -17 10
-19 17 -13 59 6 34 4 52 -5 63 -8 9 -11 27 -8 42 3 17 1 28 -6 28 -5 0 -8 7
-5 15 4 8 2 15 -3 15 -6 0 -9 16 -8 35 2 19 -2 35 -8 35 -6 0 -7 3 -4 7 4 3 2
13 -5 20 -6 8 -12 26 -13 41 -1 15 -5 34 -9 43 -4 10 -6 23 -4 30 1 8 -3 28
-9 44 -6 17 -14 51 -18 78 -3 26 -11 47 -17 47 -6 0 -8 3 -5 7 4 3 -5 26 -19
50 -14 25 -23 50 -20 58 2 7 -1 18 -8 24 -8 7 -13 30 -12 56 1 25 -2 45 -6 45
-5 0 -8 20 -8 44 0 26 -5 46 -12 49 -9 4 -10 6 -1 6 7 1 10 11 6 29 -3 15 -6
34 -7 42 -5 29 -28 80 -37 80 -5 0 -9 5 -9 12 0 15 -52 122 -62 126 -5 2 -6 8
-2 13 3 5 1 9 -4 9 -5 0 -8 19 -7 43 2 23 4 42 4 42 1 0 4 35 7 78 3 44 1 77
-4 77 -5 0 -15 14 -22 30 -7 17 -15 30 -19 30 -4 0 -15 17 -26 38 -32 60 -67
91 -141 125 -17 8 -35 20 -38 26 -4 6 -16 11 -27 11 -11 0 -30 10 -43 23 -13
13 -30 23 -38 21 -8 -1 -32 7 -54 17 -21 10 -45 18 -51 19 -7 0 -13 5 -13 11
0 5 -4 8 -9 4 -5 -3 -12 -1 -16 5 -4 6 -11 8 -16 5 -5 -4 -9 -2 -9 4 0 5 -10
13 -22 17 -13 4 -68 29 -123 55 -55 27 -105 49 -112 49 -7 0 -13 5 -13 10 0 6
-5 10 -10 10 -6 0 -53 21 -105 46 -60 29 -96 52 -100 65 -4 11 -12 18 -19 16
-7 -3 -22 5 -34 17 -22 24 -22 21 -6 176 3 36 8 79 9 95 2 17 4 30 5 30 2 0 9
42 14 95 3 25 5 45 6 45 2 0 7 24 14 72 3 21 12 64 20 96 7 31 11 57 8 57 -2
0 1 7 8 15 7 9 10 18 7 22 -4 3 -1 15 5 27 7 11 11 24 10 28 -1 4 11 16 26 27
15 12 40 31 57 44 43 32 156 146 189 190 16 21 30 53 32 70 1 18 5 64 9 102 4
39 7 75 7 80 -1 6 -4 48 -7 95 -4 47 -8 111 -8 142 -1 32 -4 58 -7 58 -4 0 -6
10 -7 23 0 39 -12 110 -33 207 -21 91 -25 115 -34 170 -6 34 -36 141 -65 235
-15 47 -44 150 -48 167 -7 38 -8 43 -15 48 -3 3 -8 19 -12 35 -13 71 -15 76
-93 197 -24 37 -43 71 -43 75 0 4 -14 26 -30 47 -17 22 -30 46 -30 53 0 7 -4
13 -10 13 -5 0 -10 7 -10 16 0 8 -4 12 -10 9 -5 -3 -10 -2 -10 4 0 5 -9 20
-20 33 -49 57 -60 72 -60 80 0 4 -7 8 -17 8 -9 0 -14 3 -10 6 10 10 -45 63
-80 76 -18 7 -33 16 -33 22 0 5 -3 6 -7 3 -3 -4 -17 0 -31 9 -17 11 -22 12
-17 3 6 -9 2 -8 -11 2 -22 18 -48 29 -84 35 -14 2 -36 6 -50 9 -14 3 -36 8
-50 11 -14 2 -46 9 -72 15 -27 6 -60 12 -75 14 -16 1 -57 5 -93 9 -36 4 -68 4
-72 1z"/>
</g>
</svg>
